<svg width="36" height="36" viewBox="0 0 36 36" fill="none" xmlns="http://www.w3.org/2000/svg">
<g clip-path="url(#clip0_1197_8451)">
<circle cx="18" cy="18" r="18" fill="#F5F6FA" fill-opacity="0.01"/>
<mask id="mask0_1197_8451" style="mask-type:alpha" maskUnits="userSpaceOnUse" x="0" y="0" width="36" height="36">
<circle cx="18" cy="18" r="18" fill="white"/>
</mask>
<g mask="url(#mask0_1197_8451)">
<rect width="36" height="36" fill="#F8F8F8"/>
</g>
</g>
<path fill-rule="evenodd" clip-rule="evenodd" d="M24.7974 9.81553C24.4069 9.42507 23.7737 9.42509 23.3832 9.81559L22.6761 10.5226L21.9689 9.81557C21.5784 9.42503 20.9452 9.42505 20.5547 9.81556L9.71058 20.6597C9.51308 20.8572 9.40716 21.1284 9.41847 21.4074L9.55699 24.8046C9.57828 25.3248 9.99519 25.7417 10.5155 25.7629L13.9125 25.9015C14.1917 25.913 14.4628 25.8069 14.6603 25.6094L25.5044 14.7653C25.895 14.3748 25.8949 13.7416 25.5044 13.3511L24.7974 12.6439L25.5044 11.9369C25.8949 11.5464 25.8949 10.9131 25.5044 10.5226L24.7974 9.81553ZM21.9689 12.644L22.676 13.3511L23.3832 14.0583L15.605 21.8363L13.4837 19.715L21.2619 11.9369L21.9689 12.644ZM12.0693 21.1293L11.4347 21.764L11.5179 23.8023L13.556 23.8853L14.1907 23.2507L12.0693 21.1293Z" fill="black"/>
<mask id="mask1_1197_8451" style="mask-type:alpha" maskUnits="userSpaceOnUse" x="9" y="9" width="17" height="17">
<path fill-rule="evenodd" clip-rule="evenodd" d="M24.7974 9.81553C24.4069 9.42507 23.7737 9.42509 23.3832 9.81559L22.6761 10.5226L21.9689 9.81557C21.5784 9.42503 20.9452 9.42505 20.5547 9.81556L9.71058 20.6597C9.51308 20.8572 9.40716 21.1284 9.41847 21.4074L9.55699 24.8046C9.57828 25.3248 9.99519 25.7417 10.5155 25.7629L13.9125 25.9015C14.1917 25.913 14.4628 25.8069 14.6603 25.6094L25.5044 14.7653C25.895 14.3748 25.8949 13.7416 25.5044 13.3511L24.7974 12.6439L25.5044 11.9369C25.8949 11.5464 25.8949 10.9131 25.5044 10.5226L24.7974 9.81553ZM21.9689 12.644L22.676 13.3511L23.3832 14.0583L15.605 21.8363L13.4837 19.715L21.2619 11.9369L21.9689 12.644ZM12.0693 21.1293L11.4347 21.764L11.5179 23.8023L13.556 23.8853L14.1907 23.2507L12.0693 21.1293Z" fill="white"/>
</mask>
<g mask="url(#mask1_1197_8451)">
<rect x="7" y="7" width="22" height="22" fill="#1C1C1C"/>
</g>
<defs>
<clipPath id="clip0_1197_8451">
<rect width="36" height="36" fill="white"/>
</clipPath>
</defs>
</svg>
